<?xml version="1.0" encoding="UTF-8"?>
<svg xmlns="http://www.w3.org/2000/svg" style="height: 0; width: 0; position: absolute; visibility: hidden">  
  <symbol id="pc" x="0px" y="0px" viewBox="0 0 512 512" style="enable-background:new 0 0 512 512;" xml:space="preserve">
    <path style="fill:#464655;" d="M494.345,39.724H17.655C7.904,39.724,0,47.629,0,57.379v282.483h512V57.379 C512,47.629,504.096,39.724,494.345,39.724z M485.517,119.172v194.207H26.483V119.172V66.207h459.034V119.172z"/>
    <path style="fill:#FFFFFF;" d="M26.483,313.379h459.034V119.172H26.483V313.379z M388.414,163.31v-8.828c0-4.875,3.953-8.828,8.828-8.828h52.966c4.875,0,8.828,3.953,8.828,8.828v8.828v114.759c0,4.875-3.953,8.828-8.828,8.828h-52.966c-4.875,0-8.828-3.953-8.828-8.828V163.31z M291.31,163.31v-8.828c0-4.875,3.953-8.828,8.828-8.828h52.966
      c4.875,0,8.828,3.953,8.828,8.828v8.828v114.759c0,4.875-3.953,8.828-8.828,8.828h-52.966c-4.875,0-8.828-3.953-8.828-8.828V163.31z M194.207,163.31v-8.828c0-4.875,3.953-8.828,8.828-8.828H256c4.875,0,8.828,3.953,8.828,8.828v8.828v114.759c0,4.875-3.953,8.828-8.828,8.828h-52.966c-4.875,0-8.828-3.953-8.828-8.828V163.31z M52.966,163.31v-8.828c0-4.875,3.953-8.828,8.828-8.828h97.103c4.875,0,8.828,3.953,8.828,8.828v8.828v114.759c0,4.875-3.953,8.828-8.828,8.828H61.793c-4.875,0-8.828-3.953-8.828-8.828V163.31z"/>
    <path style="fill:#BEC8DC;" d="M0,375.172c0,9.75,7.904,17.655,17.655,17.655h167.724h141.241h167.724c9.751,0,17.655-7.905,17.655-17.655v-35.31H0V375.172z M256,353.103c7.313,0,13.241,5.929,13.241,13.241s-5.929,13.241-13.241,13.241c-7.313,0-13.241-5.929-13.241-13.241S248.687,353.103,256,353.103z"/>
    <polygon style="fill:#AFBBD0;" points="177.655,454.621 334.345,454.621 328.828,410.483 183.172,410.483 "/>
    <path style="fill:#BEC8DC;" d="M176.552,454.621c-4.875,0-8.828,3.953-8.828,8.828s3.953,8.828,8.828,8.828h158.897c4.875,0,8.828-3.953,8.828-8.828s-3.953-8.828-8.828-8.828h-1.103h-156.69H176.552z"/>
    <polygon style="fill:#96A5B9;" points="183.172,410.483 328.828,410.483 326.621,392.828 185.379,392.828 "/>
    <path style="fill:#FF6469;" d="M26.483,119.172h459.034V66.207H26.483V119.172z M423.724,83.862h35.31c4.875,0,8.828,3.953,8.828,8.828c0,4.875-3.953,8.828-8.828,8.828h-35.31c-4.875,0-8.828-3.953-8.828-8.828 C414.897,87.815,418.849,83.862,423.724,83.862z M353.103,83.862h35.31c4.875,0,8.828,3.953,8.828,8.828c0,4.875-3.953,8.828-8.828,8.828h-35.31c-4.875,0-8.828-3.953-8.828-8.828C344.276,87.815,348.228,83.862,353.103,83.862z M282.483,83.862h35.31c4.875,0,8.828,3.953,8.828,8.828c0,4.875-3.953,8.828-8.828,8.828h-35.31c-4.875,0-8.828-3.953-8.828-8.828 C273.655,87.815,277.608,83.862,282.483,83.862z M211.862,83.862h35.31c4.875,0,8.828,3.953,8.828,8.828
      c0,4.875-3.953,8.828-8.828,8.828h-35.31c-4.875,0-8.828-3.953-8.828-8.828C203.034,87.815,206.987,83.862,211.862,83.862z M141.241,83.862h35.31c4.875,0,8.828,3.953,8.828,8.828c0,4.875-3.953,8.828-8.828,8.828h-35.31c-4.875,0-8.828-3.953-8.828-8.828 C132.414,87.815,136.366,83.862,141.241,83.862z M52.966,83.862h52.966c4.875,0,8.828,3.953,8.828,8.828c0,4.875-3.953,8.828-8.828,8.828H52.966c-4.875,0-8.828-3.953-8.828-8.828C44.138,87.815,48.09,83.862,52.966,83.862z"/>
    <path style="fill:#FFDC69;" d="M52.966,101.517h52.966c4.875,0,8.828-3.953,8.828-8.828c0-4.875-3.953-8.828-8.828-8.828H52.966c-4.875,0-8.828,3.953-8.828,8.828C44.138,97.565,48.09,101.517,52.966,101.517z"/>
    <g>
      <path style="fill:#D2555F;" d="M141.241,101.517h35.31c4.875,0,8.828-3.953,8.828-8.828c0-4.875-3.953-8.828-8.828-8.828h-35.31c-4.875,0-8.828,3.953-8.828,8.828C132.414,97.565,136.366,101.517,141.241,101.517z"/>
      <path style="fill:#D2555F;" d="M211.862,101.517h35.31c4.875,0,8.828-3.953,8.828-8.828c0-4.875-3.953-8.828-8.828-8.828h-35.31c-4.875,0-8.828,3.953-8.828,8.828C203.034,97.565,206.987,101.517,211.862,101.517z"/>
      <path style="fill:#D2555F;" d="M282.483,101.517h35.31c4.875,0,8.828-3.953,8.828-8.828c0-4.875-3.953-8.828-8.828-8.828h-35.31c-4.875,0-8.828,3.953-8.828,8.828C273.655,97.565,277.608,101.517,282.483,101.517z"/>
      <path style="fill:#D2555F;" d="M353.103,101.517h35.31c4.875,0,8.828-3.953,8.828-8.828c0-4.875-3.953-8.828-8.828-8.828h-35.31c-4.875,0-8.828,3.953-8.828,8.828C344.276,97.565,348.228,101.517,353.103,101.517z"/>
      <path style="fill:#D2555F;" d="M423.724,101.517h35.31c4.875,0,8.828-3.953,8.828-8.828c0-4.875-3.953-8.828-8.828-8.828h-35.31c-4.875,0-8.828,3.953-8.828,8.828C414.897,97.565,418.849,101.517,423.724,101.517z"/>
    </g>
    <g>
      <path style="fill:#DEE3ED;" d="M61.793,286.897h97.103c4.875,0,8.828-3.953,8.828-8.828V163.31c0,4.875-3.953,8.828-8.828,8.828 H61.793c-4.875,0-8.828-3.953-8.828-8.828v114.759C52.966,282.944,56.918,286.897,61.793,286.897z"/>
      <path style="fill:#DEE3ED;" d="M203.034,286.897H256c4.875,0,8.828-3.953,8.828-8.828V163.31c0,4.875-3.953,8.828-8.828,8.828h-52.966c-4.875,0-8.828-3.953-8.828-8.828v114.759C194.207,282.944,198.159,286.897,203.034,286.897z"/>
      <path style="fill:#DEE3ED;" d="M300.138,286.897h52.966c4.875,0,8.828-3.953,8.828-8.828V163.31c0,4.875-3.953,8.828-8.828,8.828h-52.966c-4.875,0-8.828-3.953-8.828-8.828v114.759C291.31,282.944,295.263,286.897,300.138,286.897z"/>
      <path style="fill:#DEE3ED;" d="M397.241,286.897h52.966c4.875,0,8.828-3.953,8.828-8.828V163.31c0,4.875-3.953,8.828-8.828,8.828h-52.966c-4.875,0-8.828-3.953-8.828-8.828v114.759C388.414,282.944,392.366,286.897,397.241,286.897z"/>
    </g>
    <path style="fill:#FFDC69;" d="M61.793,172.138h97.103c4.875,0,8.828-3.953,8.828-8.828v-8.828c0-4.875-3.953-8.828-8.828-8.828 H61.793c-4.875,0-8.828,3.953-8.828,8.828v8.828C52.966,168.185,56.918,172.138,61.793,172.138z"/>
    <path style="fill:#B4E173;" d="M203.034,172.138H256c4.875,0,8.828-3.953,8.828-8.828v-8.828c0-4.875-3.953-8.828-8.828-8.828h-52.966c-4.875,0-8.828,3.953-8.828,8.828v8.828C194.207,168.185,198.159,172.138,203.034,172.138z"/>
    <path style="fill:#FF969B;" d="M300.138,172.138h52.966c4.875,0,8.828-3.953,8.828-8.828v-8.828c0-4.875-3.953-8.828-8.828-8.828h-52.966c-4.875,0-8.828,3.953-8.828,8.828v8.828C291.31,168.185,295.263,172.138,300.138,172.138z"/>
    <path style="fill:#A0DCF0;" d="M397.241,172.138h52.966c4.875,0,8.828-3.953,8.828-8.828v-8.828c0-4.875-3.953-8.828-8.828-8.828h-52.966c-4.875,0-8.828,3.953-8.828,8.828v8.828C388.414,168.185,392.366,172.138,397.241,172.138z"/>
    <circle style="fill:#96A5B9;" cx="256" cy="366.345" r="13.241"/>
  </symbol>

  <symbol id="map1" x="0px" y="0px" viewBox="0 0 279.923 279.923" style="enable-background:new 0 0 279.923 279.923;" xml:space="preserve">
    <g>
      <path style="fill:#4ED5BD;" d="M279.634,279.739L218.5,183.715l-156.658,0.184l-61.553,95.84l140.355,0.184L279.634,279.739z"/>
      <path style="fill:#F4B459;" d="M140.302,0C91.998,0,52.838,37.042,52.838,82.739c0,1.82,1.654,26.48,8.086,37.594c21.641,46.94,79.291,98.692,79.379,98.508c0.079,0.271,57.974-51.788,79.51-98.771c7.517-15.165,7.955-36.439,7.955-37.331 C227.767,37.051,188.607,0,140.302,0z M140.294,122.547c-19.331,0-35.003-15.673-35.003-35.003s15.673-35.003,35.003-35.003s35.003,15.673,35.003,35.003S159.624,122.547,140.294,122.547z"/>
      <path style="fill:#CCA032;" d="M140.294,43.789c-24.161,0-43.754,19.584-43.754,43.754c0,24.179,19.593,43.754,43.754,43.754c24.179,0,43.754-19.584,43.754-43.754C184.048,63.382,164.472,43.789,140.294,43.789z M140.294,113.796c-14.5,0-26.253-11.752-26.253-26.253c0-14.491,11.752-26.253,26.253-26.253c14.5,0,26.253,11.761,26.253,26.253	C166.546,102.044,154.794,113.796,140.294,113.796z"/>
      <path style="fill:#26A6D1;" d="M201.55,245.059c-10.947,4.892-34.583,8.891-43.903,8.856c-8.033-0.053-32.448-5.18-43.606-8.856c-1.068-0.341-31.276-15.191-52.505-17.502c-22.087-2.371-26.253,0-26.253,0l-7.543,9.433L0.289,279.739l140.355,0.184l138.99-0.184l-37.55-58.963C232.361,226.682,203.466,244.201,201.55,245.059z"/>
    </g>
  </symbol>

  <symbol id="map1-grey" x="0px" y="0px" viewBox="0 0 279.923 279.923" style="enable-background:new 0 0 279.923 279.923;" xml:space="preserve">
    <g>
      <path style="fill:#aaaaaa;" d="M279.634,279.739L218.5,183.715l-156.658,0.184l-61.553,95.84l140.355,0.184L279.634,279.739z"/>
      <path style="fill:#aaaaaa;" d="M140.302,0C91.998,0,52.838,37.042,52.838,82.739c0,1.82,1.654,26.48,8.086,37.594c21.641,46.94,79.291,98.692,79.379,98.508c0.079,0.271,57.974-51.788,79.51-98.771c7.517-15.165,7.955-36.439,7.955-37.331 C227.767,37.051,188.607,0,140.302,0z M140.294,122.547c-19.331,0-35.003-15.673-35.003-35.003s15.673-35.003,35.003-35.003s35.003,15.673,35.003,35.003S159.624,122.547,140.294,122.547z"/>
      <path style="fill:#aaaaaa;" d="M140.294,43.789c-24.161,0-43.754,19.584-43.754,43.754c0,24.179,19.593,43.754,43.754,43.754c24.179,0,43.754-19.584,43.754-43.754C184.048,63.382,164.472,43.789,140.294,43.789z M140.294,113.796c-14.5,0-26.253-11.752-26.253-26.253c0-14.491,11.752-26.253,26.253-26.253c14.5,0,26.253,11.761,26.253,26.253	C166.546,102.044,154.794,113.796,140.294,113.796z"/>
      <path style="fill:#aaaaaa;" d="M201.55,245.059c-10.947,4.892-34.583,8.891-43.903,8.856c-8.033-0.053-32.448-5.18-43.606-8.856c-1.068-0.341-31.276-15.191-52.505-17.502c-22.087-2.371-26.253,0-26.253,0l-7.543,9.433L0.289,279.739l140.355,0.184l138.99-0.184l-37.55-58.963C232.361,226.682,203.466,244.201,201.55,245.059z"/>
    </g>
  </symbol>
</svg>
