<?xml version="1.0" encoding="UTF-8"?>
<svg xmlns="http://www.w3.org/2000/svg" style="height: 0; width: 0; position: absolute; visibility: hidden">  
  <symbol id="user" class="h-6 w-6" fill="none" viewBox="0 0 24 24" stroke="currentColor">
    <path stroke-linecap="round" stroke-linejoin="round" stroke-width="2" d="M16 7a4 4 0 11-8 0 4 4 0 018 0zM12 14a7 7 0 00-7 7h14a7 7 0 00-7-7z" />
  </symbol>

  <symbol id="pencil-fill" class="h-5 w-5" viewBox="0 0 20 20" fill="currentColor">
    <path d="M13.586 3.586a2 2 0 112.828 2.828l-.793.793-2.828-2.828.793-.793zM11.379 5.793L3 14.172V17h2.828l8.38-8.379-2.83-2.828z" />
  </symbol>

  <symbol id="arrow-circle-right" class="h-5 w-5" viewBox="0 0 20 20" fill="currentColor">
    <path fill-rule="evenodd" d="M10 18a8 8 0 100-16 8 8 0 000 16zm3.707-8.707l-3-3a1 1 0 00-1.414 1.414L10.586 9H7a1 1 0 100 2h3.586l-1.293 1.293a1 1 0 101.414 1.414l3-3a1 1 0 000-1.414z" clip-rule="evenodd" />
  </symbol>

  <symbol id="trash" class="h-6 w-6" fill="none" viewBox="0 0 24 24" stroke="currentColor">
    <path stroke-linecap="round" stroke-linejoin="round" stroke-width="2" d="M19 7l-.867 12.142A2 2 0 0116.138 21H7.862a2 2 0 01-1.995-1.858L5 7m5 4v6m4-6v6m1-10V4a1 1 0 00-1-1h-4a1 1 0 00-1 1v3M4 7h16" />
  </symbol>

  <svg id="trash-fill" class="h-5 w-5" viewBox="0 0 20 20" fill="currentColor">
    <path fill-rule="evenodd" d="M9 2a1 1 0 00-.894.553L7.382 4H4a1 1 0 000 2v10a2 2 0 002 2h8a2 2 0 002-2V6a1 1 0 100-2h-3.382l-.724-1.447A1 1 0 0011 2H9zM7 8a1 1 0 012 0v6a1 1 0 11-2 0V8zm5-1a1 1 0 00-1 1v6a1 1 0 102 0V8a1 1 0 00-1-1z" clip-rule="evenodd" />
  </svg>

  <symbol id="exclamation" class="h-6 w-6" fill="none" viewBox="0 0 24 24" stroke="currentColor">
    <path stroke-linecap="round" stroke-linejoin="round" stroke-width="2" d="M12 9v2m0 4h.01m-6.938 4h13.856c1.54 0 2.502-1.667 1.732-3L13.732 4c-.77-1.333-2.694-1.333-3.464 0L3.34 16c-.77 1.333.192 3 1.732 3z" />
  </symbol>

   <symbol id="user-group-fill" class="h-5 w-5" viewBox="0 0 20 20" fill="currentColor">
    <path d="M13 6a3 3 0 11-6 0 3 3 0 016 0zM18 8a2 2 0 11-4 0 2 2 0 014 0zM14 15a4 4 0 00-8 0v3h8v-3zM6 8a2 2 0 11-4 0 2 2 0 014 0zM16 18v-3a5.972 5.972 0 00-.75-2.906A3.005 3.005 0 0119 15v3h-3zM4.75 12.094A5.973 5.973 0 004 15v3H1v-3a3 3 0 013.75-2.906z" />
  </symbol>

  <symbol id="check-circle" class="h-6 w-6" fill="none" viewBox="0 0 24 24" stroke="currentColor">
    <path stroke-linecap="round" stroke-linejoin="round" stroke-width="2" d="M9 12l2 2 4-4m6 2a9 9 0 11-18 0 9 9 0 0118 0z" />
  </symbol>

  <symbol id="plus-circle" class="h-6 w-6" fill="none" viewBox="0 0 24 24" stroke="currentColor">
    <path stroke-linecap="round" stroke-linejoin="round" stroke-width="2" d="M12 9v3m0 0v3m0-3h3m-3 0H9m12 0a9 9 0 11-18 0 9 9 0 0118 0z" />
  </symbol>

  <symbol id="plus-circle-fill" class="h-5 w-5" viewBox="0 0 20 20" fill="currentColor">
    <path fill-rule="evenodd" d="M10 18a8 8 0 100-16 8 8 0 000 16zm1-11a1 1 0 10-2 0v2H7a1 1 0 100 2h2v2a1 1 0 102 0v-2h2a1 1 0 100-2h-2V7z" clip-rule="evenodd" />
  </symbol>

  <symbol id="cancel" class="h-6 w-6" fill="none" viewBox="0 0 24 24" stroke="currentColor">
    <path stroke-linecap="round" stroke-linejoin="round" stroke-width="2" d="M10 14l2-2m0 0l2-2m-2 2l-2-2m2 2l2 2m7-2a9 9 0 11-18 0 9 9 0 0118 0z" />
  </symbol>

  <symbol id="ban" class="h-6 w-6" fill="none" viewBox="0 0 24 24" stroke="currentColor">
    <path stroke-linecap="round" stroke-linejoin="round" stroke-width="2" d="M18.364 18.364A9 9 0 005.636 5.636m12.728 12.728A9 9 0 015.636 5.636m12.728 12.728L5.636 5.636" />
  </symbol>

  <symbol id="card-fill" class="h-5 w-5" viewBox="0 0 20 20" fill="currentColor">
    <path d="M4 4a2 2 0 00-2 2v1h16V6a2 2 0 00-2-2H4z" />
    <path fill-rule="evenodd" d="M18 9H2v5a2 2 0 002 2h12a2 2 0 002-2V9zM4 13a1 1 0 011-1h1a1 1 0 110 2H5a1 1 0 01-1-1zm5-1a1 1 0 100 2h1a1 1 0 100-2H9z" clip-rule="evenodd" />
  </symbol>

  <symbol id="folder-fill" class="h-5 w-5" viewBox="0 0 20 20" fill="currentColor">
    <path d="M2 6a2 2 0 012-2h5l2 2h5a2 2 0 012 2v6a2 2 0 01-2 2H4a2 2 0 01-2-2V6z" />
  </symbol>

  <symbol id="music-note" class="h-6 w-6" fill="none" viewBox="0 0 24 24" stroke="currentColor">
    <path stroke-linecap="round" stroke-linejoin="round" stroke-width="2" d="M9 19V6l12-3v13M9 19c0 1.105-1.343 2-3 2s-3-.895-3-2 1.343-2 3-2 3 .895 3 2zm12-3c0 1.105-1.343 2-3 2s-3-.895-3-2 1.343-2 3-2 3 .895 3 2zM9 10l12-3" />
  </symbol>

  <symbol id="music-note-fill" class="h-5 w-5" viewBox="0 0 20 20" fill="currentColor">
    <path d="M18 3a1 1 0 00-1.196-.98l-10 2A1 1 0 006 5v9.114A4.369 4.369 0 005 14c-1.657 0-3 .895-3 2s1.343 2 3 2 3-.895 3-2V7.82l8-1.6v5.894A4.37 4.37 0 0015 12c-1.657 0-3 .895-3 2s1.343 2 3 2 3-.895 3-2V3z" />
  </symbol>

  <symbol id="video-camera" class="h-6 w-6" fill="none" viewBox="0 0 24 24" stroke="currentColor">
    <path stroke-linecap="round" stroke-linejoin="round" stroke-width="2" d="M15 10l4.553-2.276A1 1 0 0121 8.618v6.764a1 1 0 01-1.447.894L15 14M5 18h8a2 2 0 002-2V8a2 2 0 00-2-2H5a2 2 0 00-2 2v8a2 2 0 002 2z" />
  </symbol>

  <symbol id="video-camera-fill" class="h-5 w-5" viewBox="0 0 20 20" fill="currentColor">
    <path d="M2 6a2 2 0 012-2h6a2 2 0 012 2v8a2 2 0 01-2 2H4a2 2 0 01-2-2V6zM14.553 7.106A1 1 0 0014 8v4a1 1 0 00.553.894l2 1A1 1 0 0018 13V7a1 1 0 00-1.447-.894l-2 1z" />
  </symbol>

  <symbol id="file" width="20px" height="20px" viewBox="0 0 20 20">
    <path d="M0 2C0 .9.9 0 2 0h14l4 4v14a2 2 0 0 1-2 2H2a2 2 0 0 1-2-2V2zm5 0v6h10V2H5zm6 1h3v4h-3V3z"/>
  </symbol>

  <symbol id="play" class="h-5 w-5" viewBox="0 0 20 20" fill="currentColor">
    <path fill-rule="evenodd" d="M10 18a8 8 0 100-16 8 8 0 000 16zM9.555 7.168A1 1 0 008 8v4a1 1 0 001.555.832l3-2a1 1 0 000-1.664l-3-2z" clip-rule="evenodd" />
  </symbol>
  <symbol id="arrow-up" class="h-5 w-5" viewBox="0 0 20 20" fill="currentColor">
    <path fill-rule="evenodd" d="M10 18a8 8 0 100-16 8 8 0 000 16zm3.707-8.707l-3-3a1 1 0 00-1.414 0l-3 3a1 1 0 001.414 1.414L9 9.414V13a1 1 0 102 0V9.414l1.293 1.293a1 1 0 001.414-1.414z" clip-rule="evenodd" />
  </symbol>
</svg>
